<?xml version="1.0" encoding="UTF-8" standalone="no"?>
<svg
   version="1.1"
   x="0"
   y="0"
   width="1000"
   height="300"
   viewBox="0, 0, 1000, 300"
   id="svg43"
   sodipodi:docname="barcampmilwaukee.svg"
   inkscape:version="1.2.2 (b0a8486541, 2022-12-01)"
   xmlns:inkscape="http://www.inkscape.org/namespaces/inkscape"
   xmlns:sodipodi="http://sodipodi.sourceforge.net/DTD/sodipodi-0.dtd"
   xmlns="http://www.w3.org/2000/svg"
   xmlns:svg="http://www.w3.org/2000/svg">
  <defs
     id="defs47" />
  <sodipodi:namedview
     id="namedview45"
     pagecolor="#ffffff"
     bordercolor="#666666"
     borderopacity="1.0"
     inkscape:showpageshadow="2"
     inkscape:pageopacity="0.0"
     inkscape:pagecheckerboard="0"
     inkscape:deskcolor="#d1d1d1"
     showgrid="false"
     inkscape:zoom="1.296"
     inkscape:cx="386.18827"
     inkscape:cy="307.48457"
     inkscape:window-width="1916"
     inkscape:window-height="1016"
     inkscape:window-x="1080"
     inkscape:window-y="1110"
     inkscape:window-maximized="1"
     inkscape:current-layer="svg43" />
  <path
     d="m 356.308,139.335 c -6.36,0 -11.636,2.183 -15.828,6.545 -4.19,4.363 -6.285,10.066 -6.285,17.107 0,7.191 2.095,13.004 6.285,17.441 4.192,4.438 9.468,6.656 15.828,6.656 6.161,0 11.351,-2.255 15.566,-6.767 4.214,-4.512 6.321,-10.264 6.321,-17.256 0,-6.941 -2.071,-12.632 -6.213,-17.069 -4.14,-4.437 -9.366,-6.657 -15.674,-6.657 M 335.07,91.71 v 39.991 c 3.658,-3.621 7.611,-6.339 11.861,-8.149 4.25,-1.81 8.795,-2.717 13.637,-2.717 10.526,0 19.47,3.978 26.832,11.929 7.365,7.95 11.045,18.149 11.045,30.594 0,12.002 -3.805,22.041 -11.416,30.115 -7.609,8.074 -16.629,12.111 -27.053,12.111 -4.645,0 -8.97,-0.824 -12.972,-2.47 -4.004,-1.647 -7.981,-4.338 -11.934,-8.076 v 8.546 H 314.82 V 91.71 h 20.25"
     fill="#1c2d43"
     id="path2" />
  <path
     d="m 447.165,139.335 c -6.263,0 -11.463,2.22 -15.603,6.657 -4.142,4.437 -6.211,10.128 -6.211,17.069 0,6.992 2.107,12.744 6.321,17.256 4.216,4.512 9.403,6.767 15.566,6.767 6.361,0 11.634,-2.218 15.826,-6.656 4.19,-4.437 6.287,-10.25 6.287,-17.441 0,-7.041 -2.097,-12.744 -6.287,-17.107 -4.192,-4.362 -9.491,-6.545 -15.899,-6.545 m 21.311,-16.5 h 20.25 v 80.749 h -20.25 v -8.546 c -3.959,3.738 -7.931,6.429 -11.912,8.076 -3.983,1.646 -8.299,2.47 -12.948,2.47 -10.44,0 -19.47,-4.037 -27.089,-12.111 -7.618,-8.074 -11.426,-18.113 -11.426,-30.115 0,-12.445 3.685,-22.644 11.056,-30.594 7.37,-7.951 16.325,-11.929 26.865,-11.929 4.848,0 9.398,0.904 13.652,2.711 4.254,1.808 8.187,4.517 11.802,8.129 v -8.84"
     fill="#1c2d43"
     id="path4" />
  <path
     d="m 501.29,122.835 h 17.5 v 10.228 c 1.871,-4 4.361,-7.041 7.466,-9.114 3.106,-2.074 6.506,-3.114 10.202,-3.114 2.613,0 5.347,0.693 8.207,2.081 l -6.28,17.448 c -2.365,-1.184 -4.31,-1.779 -5.836,-1.779 -3.105,0 -5.728,1.929 -7.871,5.782 -2.142,3.855 -3.213,11.413 -3.213,22.678 l 0.075,3.928 v 32.611 h -20.25 v -80.749"
     fill="#1c2d43"
     id="path6" />
  <path
     d="m 624.31,139.589 -8.238,5.121 c -7.134,-9.416 -16.864,-14.125 -29.194,-14.125 -9.856,0 -18.039,3.157 -24.55,9.467 -6.512,6.31 -9.768,13.976 -9.768,22.997 0,5.868 1.498,11.391 4.494,16.567 2.996,5.177 7.106,9.195 12.33,12.054 5.225,2.86 11.08,4.289 17.569,4.289 11.884,0 21.591,-4.707 29.119,-14.125 l 8.238,5.418 c -3.863,5.813 -9.053,10.323 -15.566,13.526 -6.515,3.203 -13.931,4.806 -22.252,4.806 -12.782,0 -23.381,-4.048 -31.801,-12.148 -8.422,-8.1 -12.631,-17.953 -12.631,-29.56 0,-7.803 1.969,-15.051 5.906,-21.742 3.938,-6.692 9.35,-11.913 16.235,-15.668 6.884,-3.754 14.588,-5.631 23.107,-5.631 5.35,0 10.514,0.812 15.492,2.437 4.977,1.625 9.2,3.742 12.668,6.351 3.467,2.608 6.414,5.932 8.842,9.966"
     fill="#af9757"
     id="path8" />
  <path
     d="m 672.951,130.835 c -5.774,0 -11.104,1.418 -15.989,4.252 -4.884,2.834 -8.769,6.812 -11.656,11.937 -2.887,5.125 -4.33,10.547 -4.33,16.262 0,5.668 1.455,11.09 4.367,16.263 2.91,5.176 6.821,9.203 11.731,12.086 4.91,2.883 10.178,4.324 15.802,4.324 5.674,0 11.053,-1.427 16.135,-4.287 5.082,-2.857 8.994,-6.726 11.733,-11.605 2.738,-4.88 4.107,-10.373 4.107,-16.484 0,-9.315 -3.072,-17.102 -9.215,-23.358 -6.144,-6.259 -13.705,-9.39 -22.685,-9.39 m 41.65,-8 v 80.749 h -10.375 v -13.878 c -4.35,5.294 -9.23,9.265 -14.641,11.91 -5.41,2.644 -11.328,3.968 -17.75,3.968 -11.414,0 -21.162,-4.134 -29.24,-12.408 -8.08,-8.273 -12.119,-18.336 -12.119,-30.189 0,-11.606 4.076,-21.53 12.229,-29.779 8.152,-8.248 17.963,-12.373 29.427,-12.373 6.621,0 12.612,1.398 17.972,4.191 5.362,2.795 10.069,7.013 14.122,12.654 v -14.845 h 10.375"
     fill="#af9757"
     id="path10" />
  <path
     d="M 731.325,122.835 H 741.7 v 13.954 c 3.619,-5.144 7.338,-8.907 11.158,-11.282 5.256,-3.112 10.785,-4.672 16.588,-4.672 3.916,0 7.635,0.769 11.156,2.302 3.522,1.534 6.398,3.575 8.629,6.122 2.23,2.55 4.166,6.198 5.803,10.948 3.459,-6.332 7.783,-11.144 12.974,-14.435 5.19,-3.291 10.776,-4.937 16.758,-4.937 5.586,0 10.516,1.411 14.791,4.228 4.275,2.817 7.451,6.748 9.527,11.791 2.077,5.042 3.116,12.604 3.116,22.686 v 44.044 h -10.625 v -44.019 c 0,-8.645 -0.619,-14.585 -1.854,-17.821 -1.234,-3.237 -3.345,-5.843 -6.334,-7.819 -2.988,-1.976 -6.556,-2.965 -10.705,-2.965 -5.039,0 -9.644,1.482 -13.818,4.448 -4.174,2.965 -7.225,6.916 -9.151,11.858 -1.925,4.94 -2.888,13.19 -2.888,24.748 v 31.57 H 786.45 v -41.277 c 0,-9.732 -0.608,-16.339 -1.823,-19.824 -1.214,-3.482 -3.332,-6.273 -6.355,-8.373 -3.023,-2.098 -6.615,-3.15 -10.777,-3.15 -4.809,0 -9.305,1.445 -13.493,4.336 -4.187,2.892 -7.285,6.782 -9.292,11.672 -2.008,4.89 -3.01,12.374 -3.01,22.452 v 34.164 h -10.375 v -80.749"
     fill="#af9757"
     id="path12" />
  <path
     d="m 909.892,130.835 c -8.963,0 -16.51,3.131 -22.64,9.39 -6.133,6.256 -9.198,14.043 -9.198,23.358 0,6.111 1.365,11.604 4.1,16.484 2.732,4.879 6.646,8.748 11.743,11.605 5.099,2.86 10.479,4.287 16.144,4.287 5.563,0 10.796,-1.441 15.697,-4.324 4.898,-2.883 8.801,-6.91 11.707,-12.086 2.906,-5.173 4.359,-10.595 4.359,-16.263 0,-5.715 -1.441,-11.137 -4.322,-16.262 -2.881,-5.125 -6.76,-9.103 -11.635,-11.937 -4.875,-2.834 -10.193,-4.252 -15.955,-4.252 m -41.588,-8 h 10.375 v 14.845 c 4.098,-5.641 8.815,-9.859 14.147,-12.654 5.332,-2.793 11.283,-4.191 17.851,-4.191 11.455,0 21.256,4.125 29.405,12.373 8.147,8.249 12.222,18.173 12.222,29.779 0,11.853 -4.037,21.916 -12.111,30.189 -8.074,8.274 -17.813,12.408 -29.219,12.408 -6.42,0 -12.32,-1.335 -17.702,-4.007 -5.384,-2.672 -10.25,-6.655 -14.593,-11.95 v 43.457 H 868.304 V 122.835"
     fill="#af9757"
     id="path14" />
  <path
     d="m 736.329,98.454 c -0.157,-2.936 -0.344,-6.498 -0.344,-9.091 h -0.063 c -0.749,2.436 -1.592,5.092 -2.655,7.998 l -3.718,10.217 h -2.062 l -3.437,-10.03 c -1,-2.999 -1.811,-5.686 -2.405,-8.185 h -0.063 c -0.062,2.624 -0.218,6.123 -0.406,9.31 l -0.562,9.03 h -2.593 l 1.468,-21.058 h 3.468 l 3.593,10.185 c 0.874,2.593 1.562,4.905 2.124,7.092 h 0.063 c 0.562,-2.124 1.312,-4.437 2.25,-7.092 l 3.749,-10.185 h 3.468 l 1.312,21.058 h -2.687 l -0.5,-9.249"
     fill="#af9757"
     id="path16" />
  <path
     d="m 755.258,86.645 h 2.75 v 21.058 h -2.75 z"
     fill="#af9757"
     id="path18" />
  <path
     d="m 770.41,86.645 h 2.75 v 18.777 h 8.998 v 2.281 H 770.41 V 86.645"
     fill="#af9757"
     id="path20" />
  <path
     d="M 793.623,107.703 788.28,86.645 h 2.874 l 2.5,10.653 c 0.624,2.656 1.186,5.249 1.561,7.28 h 0.063 c 0.344,-2.093 1,-4.593 1.719,-7.311 l 2.811,-10.622 h 2.844 l 2.561,10.685 c 0.594,2.53 1.157,4.999 1.469,7.217 h 0.063 c 0.436,-2.312 1.03,-4.655 1.686,-7.28 l 2.781,-10.622 h 2.781 l -5.968,21.058 h -2.843 l -2.655,-10.936 c -0.656,-2.718 -1.094,-4.78 -1.375,-6.905 h -0.063 c -0.343,2.125 -0.843,4.156 -1.625,6.874 l -2.999,10.967 h -2.842"
     fill="#af9757"
     id="path22" />
  <path
     d="m 829.017,101.079 -2.187,6.624 h -2.812 l 7.154,-21.058 h 3.281 l 7.186,21.058 h -2.906 l -2.249,-6.624 z m 6.904,-2.125 -2.092,-6.061 c -0.438,-1.374 -0.75,-2.624 -1.063,-3.843 h -0.094 c -0.281,1.219 -0.625,2.531 -1.031,3.812 l -2.061,6.092 h 6.341"
     fill="#af9757"
     id="path24" />
  <path
     d="m 857.976,86.645 v 12.497 c 0,4.687 2.093,6.686 4.905,6.686 3.093,0 5.123,-2.062 5.123,-6.686 V 86.645 h 2.75 v 12.309 c 0,6.468 -3.405,9.092 -7.966,9.092 -4.312,0 -7.562,-2.437 -7.562,-8.998 V 86.645 h 2.75"
     fill="#af9757"
     id="path26" />
  <path
     d="m 883.592,86.645 h 2.719 v 10.153 h 0.094 c 0.562,-0.812 1.125,-1.562 1.655,-2.249 l 6.437,-7.904 h 3.374 l -7.623,8.935 8.216,12.123 h -3.217 l -6.906,-10.342 -2.03,2.312 v 8.03 h -2.719 V 86.645"
     fill="#af9757"
     id="path28" />
  <path
     d="m 920.582,97.83 h -8.155 v 7.592 h 9.123 v 2.281 H 909.677 V 86.645 h 11.405 v 2.28 h -8.655 v 6.655 h 8.155 v 2.25"
     fill="#af9757"
     id="path30" />
  <path
     d="m 945.355,97.83 h -8.154 v 7.592 h 9.123 v 2.281 H 934.451 V 86.645 h 11.404 v 2.28 h -8.654 v 6.655 h 8.154 v 2.25"
     fill="#af9757"
     id="path32" />
  <path
     id="path34"
     d="M 202.11719 44.103516 C 196.58774 44.139293 190.77911 44.771566 184.69336 46.0625 C 190.69333 48.310494 196.43506 51.591543 201.83203 55.019531 C 207.23403 58.451522 213.39922 62.608312 211.32422 67.654297 C 204.48825 79.610261 187.84964 74.108454 178.38867 69.730469 C 167.7887 64.825484 155.85789 57.259709 143.66992 59.345703 C 131.39695 61.446697 124.59355 75.984939 120.89258 86.628906 C 134.25852 82.807918 154.05451 80.374717 161.89648 95.013672 C 167.74248 105.92964 167.21763 126.85473 154.05469 132.3457 C 139.53472 138.3937 128.86136 125.17928 118.15039 118.98828 C 108.80942 113.59631 89.79176 102.83539 82.300781 116.56836 C 76.466799 127.26233 83.012076 139.28055 77.496094 149.85352 C 70.631115 162.99346 55.018558 159.97283 43.308594 158.29883 C 46.050585 161.04183 48.657525 163.9285 51.728516 166.3125 C 57.337498 170.6615 64.377133 174.16005 71.662109 172.87305 C 77.912091 171.62505 82.144749 168.48245 86.677734 164.18945 C 91.310722 159.80248 93.219146 154.09548 99.828125 152.14648 C 104.9651 150.63251 110.6523 151.47036 115.4043 153.81836 C 125.68127 158.90633 134.85511 170.09314 134.03711 182.03711 C 133.60811 188.27708 128.91803 193.17783 124.08203 196.67383 C 121.28403 198.69783 115.77336 200.59342 108.65039 201.48242 C 117.85036 214.23639 131.6473 213.83098 147.82227 212.45898 C 160.67221 211.36801 174.85489 203.43509 187.88086 206.53906 C 202.3768 209.99406 197.73052 224.86517 188.93555 231.99414 C 178.66358 240.32011 164.84083 241.67928 152.00586 240.61328 C 161.18883 245.26928 170.73523 249.30261 180.6582 252.09961 C 311.66008 289.10552 314.549 43.376043 202.11719 44.103516 z M 250.44336 91.142578 C 251.98473 91.147959 253.49617 91.893986 254.41992 93.271484 C 266.36491 111.08447 272.67773 131.87088 272.67773 153.38086 C 272.67773 175.37384 266.09089 196.55474 253.62891 214.63672 C 252.12491 216.82072 249.13417 217.37119 246.95117 215.86719 C 244.76717 214.36119 244.21666 211.3725 245.72266 209.1875 C 257.07364 192.71552 263.07422 173.41784 263.07422 153.38086 C 263.07422 133.78188 257.3224 114.84712 246.44141 98.619141 C 244.96541 96.417143 245.55581 93.433077 247.75781 91.955078 C 248.58394 91.401204 249.51853 91.13935 250.44336 91.142578 z M 232.60156 103.08594 C 234.1434 103.09152 235.65367 103.83798 236.57617 105.21484 C 246.14615 119.48882 251.20703 136.1459 251.20703 153.38086 C 251.20703 171.00782 245.93029 187.98277 235.94531 202.46875 C 234.43931 204.65275 231.45058 205.20325 229.26758 203.69727 C 227.08358 202.19127 226.53211 199.20358 228.03711 197.01758 C 236.91209 184.1406 241.60352 169.05282 241.60352 153.38086 C 241.60352 138.05788 237.10459 123.24948 228.59961 110.5625 C 227.12161 108.3595 227.70906 105.37839 229.91406 103.90039 C 230.73981 103.34652 231.67646 103.08259 232.60156 103.08594 z M 213.90039 115.59961 C 215.44192 115.60474 216.95383 116.35039 217.87695 117.72852 C 224.96495 128.29949 228.71094 140.62889 228.71094 153.38086 C 228.71094 166.41783 224.79941 178.98097 217.39844 189.71094 C 215.89544 191.89694 212.9027 192.44545 210.7207 190.93945 C 208.53673 189.43345 207.98614 186.44374 209.49414 184.25977 C 215.78211 175.13877 219.10547 164.46083 219.10547 153.38086 C 219.10547 142.54089 215.92241 132.06114 209.89844 123.07617 C 208.42244 120.87317 209.00989 117.89106 211.21289 116.41406 C 212.03939 115.86056 212.97547 115.59653 213.90039 115.59961 z "
     style="fill:#af9757;fill-opacity:1" />
</svg>
