<?xml version="1.0" encoding="UTF-8"?>
<!DOCTYPE svg PUBLIC "-//W3C//DTD SVG 1.1//EN" "http://www.w3.org/Graphics/SVG/1.1/DTD/svg11.dtd">
<svg version="1.1" xmlns="http://www.w3.org/2000/svg" xmlns:xlink="http://www.w3.org/1999/xlink" x="0" y="0" width="1000" height="300" viewBox="0, 0, 1000, 300">
  <g id="Layer_1">
    <path d="M356.308,139.335 C349.948,139.335 344.672,141.518 340.48,145.88 C336.29,150.243 334.195,155.946 334.195,162.987 C334.195,170.178 336.29,175.991 340.48,180.428 C344.672,184.866 349.948,187.084 356.308,187.084 C362.469,187.084 367.659,184.829 371.874,180.317 C376.088,175.805 378.195,170.053 378.195,163.061 C378.195,156.12 376.124,150.429 371.982,145.992 C367.842,141.555 362.616,139.335 356.308,139.335 M335.07,91.71 L335.07,131.701 C338.728,128.08 342.681,125.362 346.931,123.552 C351.181,121.742 355.726,120.835 360.568,120.835 C371.094,120.835 380.038,124.813 387.4,132.764 C394.765,140.714 398.445,150.913 398.445,163.358 C398.445,175.36 394.64,185.399 387.029,193.473 C379.42,201.547 370.4,205.584 359.976,205.584 C355.331,205.584 351.006,204.76 347.004,203.114 C343,201.467 339.023,198.776 335.07,195.038 L335.07,203.584 L314.82,203.584 L314.82,91.71 L335.07,91.71" fill="#1C2D43"/>
    <path d="M447.165,139.335 C440.902,139.335 435.702,141.555 431.562,145.992 C427.42,150.429 425.351,156.12 425.351,163.061 C425.351,170.053 427.458,175.805 431.672,180.317 C435.888,184.829 441.075,187.084 447.238,187.084 C453.599,187.084 458.872,184.866 463.064,180.428 C467.254,175.991 469.351,170.178 469.351,162.987 C469.351,155.946 467.254,150.243 463.064,145.88 C458.872,141.518 453.573,139.335 447.165,139.335 M468.476,122.835 L488.726,122.835 L488.726,203.584 L468.476,203.584 L468.476,195.038 C464.517,198.776 460.545,201.467 456.564,203.114 C452.581,204.76 448.265,205.584 443.616,205.584 C433.176,205.584 424.146,201.547 416.527,193.473 C408.909,185.399 405.101,175.36 405.101,163.358 C405.101,150.913 408.786,140.714 416.157,132.764 C423.527,124.813 432.482,120.835 443.022,120.835 C447.87,120.835 452.42,121.739 456.674,123.546 C460.928,125.354 464.861,128.063 468.476,131.675 L468.476,122.835" fill="#1C2D43"/>
    <path d="M501.29,122.835 L518.79,122.835 L518.79,133.063 C520.661,129.063 523.151,126.022 526.256,123.949 C529.362,121.875 532.762,120.835 536.458,120.835 C539.071,120.835 541.805,121.528 544.665,122.916 L538.385,140.364 C536.02,139.18 534.075,138.585 532.549,138.585 C529.444,138.585 526.821,140.514 524.678,144.367 C522.536,148.222 521.465,155.78 521.465,167.045 L521.54,170.973 L521.54,203.584 L501.29,203.584 L501.29,122.835" fill="#1C2D43"/>
    <path d="M624.31,139.589 L616.072,144.71 C608.938,135.294 599.208,130.585 586.878,130.585 C577.022,130.585 568.839,133.742 562.328,140.052 C555.816,146.362 552.56,154.028 552.56,163.049 C552.56,168.917 554.058,174.44 557.054,179.616 C560.05,184.793 564.16,188.811 569.384,191.67 C574.609,194.53 580.464,195.959 586.953,195.959 C598.837,195.959 608.544,191.252 616.072,181.834 L624.31,187.252 C620.447,193.065 615.257,197.575 608.744,200.778 C602.229,203.981 594.813,205.584 586.492,205.584 C573.71,205.584 563.111,201.536 554.691,193.436 C546.269,185.336 542.06,175.483 542.06,163.876 C542.06,156.073 544.029,148.825 547.966,142.134 C551.904,135.442 557.316,130.221 564.201,126.466 C571.085,122.712 578.789,120.835 587.308,120.835 C592.658,120.835 597.822,121.647 602.8,123.272 C607.777,124.897 612,127.014 615.468,129.623 C618.935,132.231 621.882,135.555 624.31,139.589" fill="#AF9757"/>
    <path d="M672.951,130.835 C667.177,130.835 661.847,132.253 656.962,135.087 C652.078,137.921 648.193,141.899 645.306,147.024 C642.419,152.149 640.976,157.571 640.976,163.286 C640.976,168.954 642.431,174.376 645.343,179.549 C648.253,184.725 652.164,188.752 657.074,191.635 C661.984,194.518 667.252,195.959 672.876,195.959 C678.55,195.959 683.929,194.532 689.011,191.672 C694.093,188.815 698.005,184.946 700.744,180.067 C703.482,175.187 704.851,169.694 704.851,163.583 C704.851,154.268 701.779,146.481 695.636,140.225 C689.492,133.966 681.931,130.835 672.951,130.835 M714.601,122.835 L714.601,203.584 L704.226,203.584 L704.226,189.706 C699.876,195 694.996,198.971 689.585,201.616 C684.175,204.26 678.257,205.584 671.835,205.584 C660.421,205.584 650.673,201.45 642.595,193.176 C634.515,184.903 630.476,174.84 630.476,162.987 C630.476,151.381 634.552,141.457 642.705,133.208 C650.857,124.96 660.668,120.835 672.132,120.835 C678.753,120.835 684.744,122.233 690.104,125.026 C695.466,127.821 700.173,132.039 704.226,137.68 L704.226,122.835 L714.601,122.835" fill="#AF9757"/>
    <path d="M731.325,122.835 L741.7,122.835 L741.7,136.789 C745.319,131.645 749.038,127.882 752.858,125.507 C758.114,122.395 763.643,120.835 769.446,120.835 C773.362,120.835 777.081,121.604 780.602,123.137 C784.124,124.671 787,126.712 789.231,129.259 C791.461,131.809 793.397,135.457 795.034,140.207 C798.493,133.875 802.817,129.063 808.008,125.772 C813.198,122.481 818.784,120.835 824.766,120.835 C830.352,120.835 835.282,122.246 839.557,125.063 C843.832,127.88 847.008,131.811 849.084,136.854 C851.161,141.896 852.2,149.458 852.2,159.54 L852.2,203.584 L841.575,203.584 L841.575,159.565 C841.575,150.92 840.956,144.98 839.721,141.744 C838.487,138.507 836.376,135.901 833.387,133.925 C830.399,131.949 826.831,130.96 822.682,130.96 C817.643,130.96 813.038,132.442 808.864,135.408 C804.69,138.373 801.639,142.324 799.713,147.266 C797.788,152.206 796.825,160.456 796.825,172.014 L796.825,203.584 L786.45,203.584 L786.45,162.307 C786.45,152.575 785.842,145.968 784.627,142.483 C783.413,139.001 781.295,136.21 778.272,134.11 C775.249,132.012 771.657,130.96 767.495,130.96 C762.686,130.96 758.19,132.405 754.002,135.296 C749.815,138.188 746.717,142.078 744.71,146.968 C742.702,151.858 741.7,159.342 741.7,169.42 L741.7,203.584 L731.325,203.584 L731.325,122.835" fill="#AF9757"/>
    <path d="M909.892,130.835 C900.929,130.835 893.382,133.966 887.252,140.225 C881.119,146.481 878.054,154.268 878.054,163.583 C878.054,169.694 879.419,175.187 882.154,180.067 C884.886,184.946 888.8,188.815 893.897,191.672 C898.996,194.532 904.376,195.959 910.041,195.959 C915.604,195.959 920.837,194.518 925.738,191.635 C930.636,188.752 934.539,184.725 937.445,179.549 C940.351,174.376 941.804,168.954 941.804,163.286 C941.804,157.571 940.363,152.149 937.482,147.024 C934.601,141.899 930.722,137.921 925.847,135.087 C920.972,132.253 915.654,130.835 909.892,130.835 M868.304,122.835 L878.679,122.835 L878.679,137.68 C882.777,132.039 887.494,127.821 892.826,125.026 C898.158,122.233 904.109,120.835 910.677,120.835 C922.132,120.835 931.933,124.96 940.082,133.208 C948.229,141.457 952.304,151.381 952.304,162.987 C952.304,174.84 948.267,184.903 940.193,193.176 C932.119,201.45 922.38,205.584 910.974,205.584 C904.554,205.584 898.654,204.249 893.272,201.577 C887.888,198.905 883.022,194.922 878.679,189.627 L878.679,233.084 L868.304,233.084 L868.304,122.835" fill="#AF9757"/>
    <path d="M736.329,98.454 C736.172,95.518 735.985,91.956 735.985,89.363 L735.922,89.363 C735.173,91.799 734.33,94.455 733.267,97.361 L729.549,107.578 L727.487,107.578 L724.05,97.548 C723.05,94.549 722.239,91.862 721.645,89.363 L721.582,89.363 C721.52,91.987 721.364,95.486 721.176,98.673 L720.614,107.703 L718.021,107.703 L719.489,86.645 L722.957,86.645 L726.55,96.83 C727.424,99.423 728.112,101.735 728.674,103.922 L728.737,103.922 C729.299,101.798 730.049,99.485 730.987,96.83 L734.736,86.645 L738.204,86.645 L739.516,107.703 L736.829,107.703 L736.329,98.454" fill="#AF9757"/>
    <path d="M755.258,86.645 L758.008,86.645 L758.008,107.703 L755.258,107.703 z" fill="#AF9757"/>
    <path d="M770.41,86.645 L773.16,86.645 L773.16,105.422 L782.158,105.422 L782.158,107.703 L770.41,107.703 L770.41,86.645" fill="#AF9757"/>
    <path d="M793.623,107.703 L788.28,86.645 L791.154,86.645 L793.654,97.298 C794.278,99.954 794.84,102.547 795.215,104.578 L795.278,104.578 C795.622,102.485 796.278,99.985 796.997,97.267 L799.808,86.645 L802.652,86.645 L805.213,97.33 C805.807,99.86 806.37,102.329 806.682,104.547 L806.745,104.547 C807.181,102.235 807.775,99.892 808.431,97.267 L811.212,86.645 L813.993,86.645 L808.025,107.703 L805.182,107.703 L802.527,96.767 C801.871,94.049 801.433,91.987 801.152,89.862 L801.089,89.862 C800.746,91.987 800.246,94.018 799.464,96.736 L796.465,107.703 L793.623,107.703" fill="#AF9757"/>
    <path d="M829.017,101.079 L826.83,107.703 L824.018,107.703 L831.172,86.645 L834.453,86.645 L841.639,107.703 L838.733,107.703 L836.484,101.079 L829.017,101.079 z M835.921,98.954 L833.829,92.893 C833.391,91.519 833.079,90.269 832.766,89.05 L832.672,89.05 C832.391,90.269 832.047,91.581 831.641,92.862 L829.58,98.954 L835.921,98.954" fill="#AF9757"/>
    <path d="M857.976,86.645 L857.976,99.142 C857.976,103.829 860.069,105.828 862.881,105.828 C865.974,105.828 868.004,103.766 868.004,99.142 L868.004,86.645 L870.754,86.645 L870.754,98.954 C870.754,105.422 867.349,108.046 862.788,108.046 C858.476,108.046 855.226,105.609 855.226,99.048 L855.226,86.645 L857.976,86.645" fill="#AF9757"/>
    <path d="M883.592,86.645 L886.311,86.645 L886.311,96.798 L886.405,96.798 C886.967,95.986 887.53,95.236 888.06,94.549 L894.497,86.645 L897.871,86.645 L890.248,95.58 L898.464,107.703 L895.247,107.703 L888.341,97.361 L886.311,99.673 L886.311,107.703 L883.592,107.703 L883.592,86.645" fill="#AF9757"/>
    <path d="M920.582,97.83 L912.427,97.83 L912.427,105.422 L921.55,105.422 L921.55,107.703 L909.677,107.703 L909.677,86.645 L921.082,86.645 L921.082,88.925 L912.427,88.925 L912.427,95.58 L920.582,95.58 L920.582,97.83" fill="#AF9757"/>
    <path d="M945.355,97.83 L937.201,97.83 L937.201,105.422 L946.324,105.422 L946.324,107.703 L934.451,107.703 L934.451,86.645 L945.855,86.645 L945.855,88.925 L937.201,88.925 L937.201,95.58 L945.355,95.58 L945.355,97.83" fill="#AF9757"/>
    <path d="M154.054,132.346 C167.217,126.855 167.742,105.93 161.896,95.014 C154.054,80.375 134.259,82.807 120.893,86.628 C124.594,75.984 131.396,61.446 143.669,59.345 C155.857,57.259 167.789,64.826 178.389,69.731 C187.85,74.109 204.488,79.611 211.324,67.655 C213.399,62.609 207.234,58.451 201.832,55.019 C196.435,51.591 190.694,48.311 184.694,46.063 C314.524,18.523 318.104,290.926 180.659,252.1 C170.736,249.303 161.188,245.27 152.005,240.614 C164.84,241.68 178.663,240.321 188.935,231.995 C197.73,224.866 202.376,209.995 187.88,206.54 C174.854,203.436 160.672,211.368 147.822,212.459 C131.647,213.831 117.851,214.237 108.651,201.483 C115.774,200.594 121.284,198.698 124.082,196.674 C128.918,193.178 133.608,188.278 134.037,182.038 C134.855,170.094 125.681,158.907 115.404,153.819 C110.652,151.471 104.965,150.633 99.828,152.147 C93.219,154.096 91.311,159.803 86.678,164.19 C82.145,168.483 77.913,171.626 71.663,172.874 C64.378,174.161 57.337,170.661 51.728,166.312 C48.657,163.928 46.05,161.042 43.308,158.299 C55.018,159.973 70.632,162.993 77.497,149.853 C83.013,139.28 76.466,127.263 82.3,116.569 C89.791,102.836 108.809,113.597 118.15,118.989 C128.861,125.18 139.534,138.394 154.054,132.346" fill="#AF9757"/>
    <path d="M217.399,189.711 C224.8,178.981 228.711,166.418 228.711,153.381 C228.711,140.629 224.964,128.3 217.876,117.729 C216.399,115.524 213.417,114.938 211.213,116.414 C209.01,117.891 208.422,120.874 209.898,123.077 C215.922,132.062 219.106,142.541 219.106,153.381 C219.106,164.461 215.782,175.139 209.494,184.26 C207.986,186.444 208.537,189.434 210.721,190.94 C212.903,192.446 215.896,191.897 217.399,189.711" fill="#FFFFFE"/>
    <path d="M235.945,202.469 C245.93,187.983 251.207,171.008 251.207,153.381 C251.207,136.146 246.147,119.489 236.577,105.215 C235.101,103.012 232.116,102.423 229.914,103.9 C227.709,105.378 227.122,108.36 228.6,110.563 C237.105,123.25 241.603,138.058 241.603,153.381 C241.603,169.053 236.912,184.141 228.037,197.018 C226.532,199.204 227.083,202.192 229.267,203.698 C231.45,205.204 234.439,204.653 235.945,202.469" fill="#FFFFFE"/>
    <path d="M246.442,98.619 C257.323,114.847 263.074,133.782 263.074,153.381 C263.074,173.418 257.073,192.715 245.722,209.187 C244.216,211.372 244.767,214.362 246.951,215.868 C249.134,217.372 252.125,216.821 253.629,214.637 C266.091,196.555 272.677,175.374 272.677,153.381 C272.677,131.871 266.365,111.084 254.42,93.271 C252.942,91.067 249.96,90.479 247.757,91.956 C245.555,93.434 244.966,96.417 246.442,98.619" fill="#FFFFFE"/>
  </g>
</svg>
